<?xml version="1.0" encoding="UTF-8" standalone="no"?>
<svg
   viewBox="0 0 61.547072 62.548631"
   version="1.1"
   id="svg11"
   width="61.54707"
   height="62.548634"
   xmlns="http://www.w3.org/2000/svg"
   xmlns:svg="http://www.w3.org/2000/svg">
  <defs
     id="defs1">
    <style
       id="style1">.cls-1{isolation:isolate;}.cls-2{fill:#00aeef;}.cls-3{mix-blend-mode:multiply;}</style>
  </defs>
  <g
     class="cls-1"
     id="g11"
     transform="matrix(0.86310746,0,0,0.86310746,-79.108299,22.944275)">
    <g
       id="Layer_2">
      <g
         id="Layer_1-2"
         transform="matrix(4.9602405,0,0,4.9602405,-510.50296,-26.583335)">
        <g
           class="cls-3"
           id="g1" />
        <g
           class="cls-3"
           id="g5" />
        <g
           class="cls-3"
           id="g6" />
        <g
           class="cls-3"
           id="g7" />
        <g
           class="cls-3"
           id="g8">
          <path
             class="cls-2"
             d="m 131.74,14.02 c 0,0 0.15,-3.34 -3.47,-6.96 -3.62,-3.62 -6.86,-3.37 -6.86,-3.37 0,0 -0.41,3.08 3.37,6.86 3.57,3.57 6.96,3.47 6.96,3.47 z"
             id="path8" />
        </g>
        <g
           class="cls-3"
           id="g9">
          <path
             class="cls-2"
             d="m 125.43,14.02 c 0,0 3.34,0.15 6.96,-3.47 3.78,-3.78 3.37,-6.86 3.37,-6.86 0,0 -3.08,-0.41 -6.86,3.37 -3.57,3.57 -3.47,6.96 -3.47,6.96 z"
             id="path9" />
        </g>
        <g
           class="cls-3"
           id="g10">
          <path
             class="cls-2"
             d="m 128.59,14.61 c 0,0 2.46,-2.26 2.46,-7.38 0,-5.34 -2.46,-7.23 -2.46,-7.23 0,0 -2.46,1.89 -2.46,7.23 0,5.04 2.46,7.38 2.46,7.38 z"
             id="path10" />
        </g>
      </g>
    </g>
  </g>
</svg>
